<?xml version="1.0" encoding="UTF-8"?>
<svg id="Layer_1" data-name="Layer 1" xmlns="http://www.w3.org/2000/svg" viewBox="0 0 163.62 163.62">
  <defs>
    <style>
      .cls-1 {
        fill: #14150d;
      }

      .cls-2 {
        fill: #cace2d;
      }
    </style>
  </defs>
  <g>
    <path class="cls-1" d="M24.9,86.6c0,1.72-1.2,2.8-3.4,4.27h3.56v1.62h-6.4v-1.57c2.94-2.11,4.07-3.06,4.07-4.32,0-.65-.29-1.01-.9-1.01-.72,0-1.06.5-1.07,1.43h-2.11c.01-1.65,1.04-3.02,3.27-3.02,1.83,0,2.99,1.04,2.99,2.61Z"/>
    <path class="cls-1" d="M29.42,83.99c2.21,0,3.66,1.46,3.66,4.29s-1.46,4.38-3.66,4.38-3.66-1.5-3.66-4.38,1.45-4.29,3.66-4.29ZM28,89.76l2.34-4.01c-.26-.23-.57-.28-.88-.28-1.04,0-1.65.84-1.65,2.77,0,.62.07,1.13.18,1.52ZM29.38,90.96c1.05,0,1.65-.95,1.65-2.72,0-.7-.09-1.23-.21-1.65l-2.37,4.05c.26.26.58.32.93.32Z"/>
  </g>
  <g>
    <path class="cls-1" d="M135.21,86.6c0,1.72-1.19,2.8-3.4,4.27h3.56v1.62h-6.4v-1.57c2.94-2.11,4.07-3.06,4.07-4.32,0-.65-.29-1.01-.9-1.01-.72,0-1.06.5-1.07,1.43h-2.11c.01-1.65,1.04-3.02,3.27-3.02,1.83,0,2.99,1.04,2.99,2.61Z"/>
    <path class="cls-1" d="M142.04,89.37h1.07v1.62h-1.07v1.5h-2.05v-1.5h-4.16v-1.63l3.51-5.21h2.69v5.22ZM138.02,89.37h1.96v-3.08l-1.96,3.08Z"/>
  </g>
  <g>
    <path class="cls-1" d="M31.83,54.39c4.93,2.39,4.91,6.4,3.42,9.46l-2.33,4.81-12.6-6.1,2.06-4.25c1.73-3.58,4.91-6.11,9.45-3.92ZM24.4,60.61l7.53,3.64.79-1.64c.71-1.48.77-3.38-2.47-4.95-2.25-1.09-4.06-.74-5.28,1.78l-.57,1.17Z"/>
    <path class="cls-1" d="M42.66,41.93c3.77,3.35,3.26,7.41.74,10.25-2.28,2.57-6.28,4-10.29.44-3.86-3.42-3.25-7.43-.75-10.24,2.31-2.6,6.2-4.09,10.3-.46ZM35.52,49.9c2.15,1.91,4.21,2.1,5.73.38,1.34-1.51,1.21-3.66-.99-5.61-2.09-1.86-4.19-2.09-5.73-.35-1.38,1.55-1.16,3.68.98,5.58Z"/>
    <path class="cls-1" d="M55.75,35.34c1.74,2.71,1.45,5.79-2.01,8.01-3.52,2.25-6.35,1.13-8.07-1.55l-4.7-7.34,2.96-1.9,4.68,7.3c1.05,1.63,2.14,1.97,3.59,1.05s1.55-2.13.55-3.7l-4.68-7.3,2.98-1.91,4.7,7.34Z"/>
    <path class="cls-1" d="M69.87,31.73c.72,2.21-.27,4.36-4.32,5.67l-5.71,1.85-4.33-13.32,4.97-1.61c4.13-1.34,6.01-.52,6.69,1.57.52,1.6-.14,2.68-1.45,3.5,2.27-.27,3.56.55,4.14,2.33ZM59.71,27.44l.88,2.7,2.13-.69c.91-.3,1.54-.9,1.21-1.91-.33-1.03-1.17-1.09-2.39-.7l-1.83.59ZM66.31,32.62c-.45-1.37-1.65-1.27-2.55-.98l-2.44.79,1.03,3.18,2.47-.8c1.12-.37,1.84-1.08,1.48-2.18Z"/>
    <path class="cls-1" d="M75.04,32.42l5.92-.53.27,2.99-9.43.84-1.24-13.95,3.51-.31.97,10.96Z"/>
    <path class="cls-1" d="M92.68,25.02l-6.1-.72-.31,2.6,5.68.67-.32,2.74-5.68-.67-.34,2.88,6.28.74-.34,2.84-9.77-1.16,1.65-13.91,9.6,1.13-.34,2.84Z"/>
    <path class="cls-1" d="M110.71,31.75l-3.56-1.6-4.56,10.12-3.23-1.46,4.56-10.12-3.54-1.6,1.19-2.64,10.32,4.65-1.19,2.64Z"/>
    <path class="cls-1" d="M121.28,41.43c-1.13,1.48-2.69,1.9-4.57,1.37l-.56,6.72-3.34-2.55.79-5.81-1.24-.95-3.1,4.05-2.79-2.14,8.5-11.12,4.4,3.36c3.24,2.48,3.48,5,1.9,7.06ZM116.07,35.36l-2.09,2.73,1.65,1.26c.98.75,1.94.93,2.74-.12.69-.91.46-1.76-.57-2.55l-1.73-1.32Z"/>
    <path class="cls-1" d="M127.6,55.71c-2.53,1.99-5.62,2-8.17-1.24-2.58-3.29-1.73-6.22.77-8.19l6.86-5.39,2.17,2.77-6.83,5.36c-1.53,1.2-1.76,2.33-.7,3.68,1.06,1.35,2.28,1.34,3.74.19l6.83-5.36,2.19,2.79-6.86,5.39Z"/>
    <path class="cls-1" d="M138.18,64.46l-2.53-5.59-2.39,1.08,2.36,5.21-2.51,1.14-2.36-5.21-2.64,1.2,2.61,5.76-2.61,1.18-4.06-8.96,12.75-5.78,3.99,8.8-2.61,1.18Z"/>
  </g>
  <g>
    <path class="cls-1" d="M44.61,125.71c-.66.67-1.21,1.01-1.8,1.21-.8.27-2.07.25-2.99-.45-.97-.74-2.85-2.69-2.93-2.81-.13-.19-.1-.27-.01-.38.04-.05.76-.75,1.17-1.19.4-.43,1.35-1.33,1.53-1.51.19-.19.34-.38.52-.57.96-.97,1.78-1.79,1.82-1.83.11-.1.18-.08.34.05.06.05.21.2.39.37h0s.05.05.07.07c.37.37,1.55,1.44,2.02,1.96.28.32.94,1.17.96,2.39.01.77-.14,1.74-1.09,2.7ZM41.63,125.21c.44,0,1.11-.27,1.65-.79.73-.7.78-1.38.67-1.9-.12-.54-.41-.93-.56-1.1-.19-.21-.86-.85-.99-.96-.08-.07-.15-.02-.22.05-.16.16-.49.49-.98.95-.43.4-1.67,1.67-1.88,1.93-.11.14-.13.22-.02.33l.53.53c.21.2.9.96,1.79.96h0Z"/>
    <path class="cls-1" d="M49.54,132.46c-.08.12-.52.74-.75,1.03-.1.13-.16.14-.29.06-.04-.03-1.01-.76-1.58-1.14-.21-.14-2.81-2.06-2.85-2.09-.06-.04-.12-.09-.17-.13-.08-.06-.18-.1-.3-.22s-.08-.23-.01-.36c.03-.05.63-.84.97-1.35.33-.49,1.14-1.51,1.29-1.71.16-.22.27-.43.43-.64.81-1.1,1.43-1.95,1.55-2.08.1-.11.14-.17.33-.05.18.12.25.21.73.53.46.31,1.38,1,1.57,1.14.21.15.39.3.59.45,1.04.76,1.93,1.41,1.97,1.45.11.09.1.16,0,.33-.08.12-.52.74-.75,1.03-.1.13-.16.14-.29.06-.04-.03-1.01-.75-1.58-1.14-.08-.06-.47-.33-.92-.66-.3-.21-.79-.59-.9-.65s-.21-.09-.32.04c-.09.1-.26.33-.39.51-.04.06-.1.17,0,.26.1.09.19.16.26.21.2.15,1.06.79,1.41,1.02s1.07.76,1.11.79c.1.09.1.16,0,.32-.07.12-.51.72-.73,1.01-.1.13-.16.14-.28.06-.04-.03-.99-.74-1.54-1.12-.12-.08-.89-.65-1.12-.79s-.28-.09-.41.06c-.09.11-.34.42-.43.58-.09.15-.12.22.01.35.13.12.73.56.84.64.21.15.41.26.61.41,1.05.77,1.93,1.42,1.98,1.45.11.09.1.16,0,.33h0Z"/>
    <path class="cls-1" d="M57.38,134.29c.17.52.11,1.07-.25,1.67-.17.28-.47.59-.7.73-.14.08-.38.18-.59.23-.18.04-.26.07-.41.09-.32.05-.69.02-1.02-.08-1.14-.33-2.29-1.11-2.71-1.63-.54-.68-.83-1.5-.96-1.93-.05-.17-.03-.25.15-.34.12-.06.77-.29,1.11-.37.2-.05.27-.01.33.14.15.42.31,1.3,1.13,1.89.42.31,1.03.58,1.37.56.71-.03.9-.46.56-.98-.2-.31-.83-.75-1.41-1.28-.62-.57-1.15-1.29-1.26-1.99-.06-.39.01-1.39.96-1.99,1.05-.67,2.95.18,4.03.94.7.5,1.18,1.37,1.32,1.75.05.14.02.2-.09.29-.23.18-.93.5-1.03.53-.14.05-.22,0-.28-.11-.34-.61-.98-1.5-2.05-1.89-.35-.13-.9-.24-1.11.19-.28.55,1.01,1.37,1.29,1.64.65.65,1.37,1.13,1.63,1.92h0Z"/>
    <path class="cls-1" d="M60.23,137.4c-.23.48-.52,1.31-.62,1.48-.1.17-.2.17-.37.1-.37-.14-.97-.37-1.09-.45-.18-.12-.19-.21-.15-.35.01-.06.41-.97.61-1.55.2-.55.74-1.75.83-1.98.1-.25.16-.48.26-.72.51-1.27.95-2.34.97-2.39.07-.13.14-.15.32-.09.14.04.84.32,1.18.47.15.07.18.12.12.27-.02.05-.51,1.23-.76,1.91-.09.25-1.09,2.8-1.32,3.28Z"/>
    <path class="cls-1" d="M69.44,139.16c-.21.54-.54.94-1.05,1.37-.64.54-1.44.7-2.08.68-1.14-.04-2.44-.39-3.1-1.06s-1.16-1.67-1.18-2.51.22-1.87.88-2.78c.23-.31.5-.6.77-.82.23-.18.49-.28.74-.4.88-.42,1.89-.47,2.91-.19.75.21,1.33.5,1.75.84.67.54.98,1.17,1.06,1.35.12.25.1.3-.04.42-.19.16-.89.5-1.14.61-.13.06-.16.04-.24-.05-.08-.09-.86-1.4-2.12-1.64-.51-.1-.91-.04-1.34.13-.27.11-.52.23-.72.42-.23.22-.41.5-.54.8-.26.62-.29,1.71.35,2.45.24.27.71.58,1.17.69,1.56.39,1.95-.32,2.01-.41.06-.08.04-.13-.09-.17-.83-.23-1.51-.42-1.6-.46-.16-.07-.17-.17-.13-.32.08-.34.23-.9.29-1.02.09-.18.16-.19.29-.17.03,0,.77.19,1.43.36.43.11.81.23.98.27.43.09.92.29.96.3.13.04.15.11.11.28-.02.13-.08.42-.32,1.03Z"/>
    <path class="cls-1" d="M78.43,137.76c-.02.27-.31,2.99-.41,3.51-.09.52-.18,1.4-.23,1.59-.05.17-.09.2-.24.21-.15,0-.46-.05-.62-.07-.32-.04-.64-.07-.66-.07-.21-.03-.22-.09-.34-.23-.19-.23-.67-1.17-1.04-1.82-.17-.3-.47-.79-.69-1.18-.23-.42-.39-.77-.46-.9-.15-.29-.28-.53-.42-.81-.07-.13-.23-.15-.25.05-.09.91-.23,2.26-.3,2.65-.09.52-.14,1.4-.19,1.59-.05.19-.15.22-.33.2-.39-.03-1.03-.09-1.17-.14-.21-.07-.23-.15-.23-.29,0-.06.13-1.05.17-1.65.04-.58.24-1.88.27-2.12.03-.27.03-.51.06-.77.15-1.36.32-2.52.33-2.58.03-.15.06-.19.26-.19.13,0,.74.07,1.13.13.09.01.17.02.24.03.17.03.21.09.33.24.08.11.36.58.64,1.13.19.36.38.8.58,1.12.13.21.24.5.53,1.03.25.47.55,1.01.81,1.47.06.11.2.06.22-.08.06-.43.12-.83.14-.95.03-.27.03-.51.06-.77.16-1.35.3-2.5.31-2.56.03-.15.09-.18.29-.17.14,0,.9.08,1.26.14.16.03.2.07.19.23,0,.06-.17,1.32-.23,2.04h0Z"/>
    <path class="cls-1" d="M90.85,140.27c.02.32-.06.75-.16,1-.07.15-.21.37-.35.52-.12.14-.18.21-.28.31-.24.23-.56.4-.89.51-1.13.37-2.52.37-3.15.17-.83-.26-1.53-.77-1.88-1.04-.14-.11-.16-.2-.07-.37.06-.11.47-.67.71-.93.14-.15.21-.16.35-.06.36.26.99.9,2,.93.52.02,1.17-.1,1.44-.3.57-.42.48-.88-.09-1.12-.34-.14-1.11-.15-1.88-.26-.83-.12-1.68-.41-2.17-.93-.27-.29-.77-1.15-.33-2.19.49-1.15,2.54-1.52,3.86-1.49.86.02,1.74.46,2.07.7.12.09.13.15.09.29-.09.28-.49.93-.55,1.01-.09.12-.18.12-.29.07-.63-.31-1.65-.68-2.76-.41-.36.09-.87.31-.81.79.08.61,1.61.56,1.99.63.9.17,1.77.17,2.42.66.44.33.69.82.73,1.53Z"/>
    <path class="cls-1" d="M97.32,133.18c.05.14.24.87.32,1.23.03.16,0,.21-.15.26-.05.01-1.26.33-1.99.54-.22.06-.28.1-.22.41.06.31.81,3.07.92,3.59.1.52.37,1.38.38,1.58.02.2-.07.23-.24.28-.17.05-.4.12-.61.18-.24.06-.49.12-.58.12-.2.02-.23-.02-.28-.2-.06-.19-.26-.95-.43-1.62-.14-.57-.62-2.29-.72-2.82-.06-.29-.12-.52-.16-.68-.09-.31-.12-.33-.27-.3-.15.03-1.95.51-2.1.53-.2.02-.26-.06-.3-.24-.11-.38-.28-.99-.29-1.14-.01-.22.05-.27.19-.32.06-.02,1.93-.48,2.51-.65.56-.17,1.02-.27,1.26-.33.26-.07,1.03-.26,1.45-.36.43-.1.94-.25,1-.26.15-.03.25.03.31.21h0Z"/>
    <path class="cls-1" d="M106.17,134.76c.43,1.42.08,1.93-.27,2.53-.38.65-1.44,1.22-1.97,1.44-.87.36-1.41.42-1.89.34-1.25-.19-1.75-.63-2.19-1.45s-1.97-4.59-1.99-4.65c-.05-.14,0-.2.17-.3.13-.07.84-.37,1.2-.5.16-.06.22-.04.29.1.01.02.46,1.08.93,2.18.18.43.52,1.21.9,1.94s1.21,1.13,2.18.65c1.15-.58.95-1.43.74-2.06-.22-.68-1.65-3.97-1.66-4-.05-.14,0-.2.17-.3.13-.07.86-.38,1.22-.51.16-.06.22-.04.29.1.03.05.55,1.21.84,1.87.39.88.71,1.55,1.03,2.61Z"/>
    <path class="cls-1" d="M113.37,128.84c.5.8.7,1.41.75,2.03.07.84-.24,2.07-1.14,2.8-.95.77-3.28,2.13-3.42,2.19-.21.08-.28.04-.38-.08-.04-.05-.55-.91-.88-1.41-.33-.49-.97-1.63-1.11-1.84-.14-.23-.29-.42-.43-.64-.72-1.16-1.32-2.15-1.35-2.2-.07-.13-.04-.2.12-.32.06-.04.24-.16.45-.29h.01s.05-.04.08-.06c.45-.28,1.76-1.16,2.38-1.5.38-.2,1.35-.64,2.55-.37.75.17,1.66.55,2.37,1.69ZM112.18,131.61c.11-.42,0-1.14-.38-1.79-.51-.87-1.15-1.08-1.69-1.09-.55-.01-1,.18-1.2.29-.25.13-1.03.64-1.16.73-.09.07-.05.15,0,.22.12.19.36.59.69,1.17.28.51,1.23,2.01,1.44,2.27.11.14.18.18.32.1l.64-.39c.25-.15,1.14-.65,1.35-1.52h0Z"/>
    <path class="cls-1" d="M117.16,128.47c.3.43.88,1.1.97,1.27.1.17.04.26-.09.37-.3.25-.8.65-.94.72-.2.1-.27.06-.37-.05-.04-.04-.64-.84-1.03-1.31-.38-.45-1.14-1.51-1.3-1.71-.17-.21-.33-.38-.49-.59-.84-1.08-1.55-1.99-1.58-2.04-.08-.12-.06-.19.08-.32.11-.1.7-.57,1-.78.13-.09.19-.09.3.03.04.04.81,1.06,1.27,1.61.17.21,1.88,2.34,2.18,2.78Z"/>
    <path class="cls-1" d="M123.77,122c.05.14.1.27.14.41.02.1.03.2.04.3.05.32.06.64.03.96-.09.91-.52,1.78-1.21,2.5-.55.57-1.19.95-1.86,1.13-.39.11-.78.2-1.18.17-.46-.03-.92-.22-1.35-.42-.45-.22-.88-.53-1.25-.91-.42-.43-.79-1.07-1.01-1.64-.16-.43-.22-.8-.2-1.05.04-.58.08-.98.11-1.12.05-.18.21-.65.48-1.05.22-.33.25-.43.65-.83.61-.6,1.37-.96,2.15-1.09.49-.08.94-.11,1.43,0,.76.16,1.53.58,2.11,1.17.42.43.73.94.92,1.47ZM118.25,121.64c-.43.48-.63.88-.59,1.52.04.58.24,1.03.75,1.59.4.44.93.8,1.46.87.66.09,1.26-.14,1.75-.62.49-.48.65-1.12.61-1.78-.04-.53-.3-1.01-.7-1.44-.54-.58-1.07-.84-1.68-.82-.24,0-.6.04-.83.13-.25.1-.54.29-.76.54h0Z"/>
  </g>
  <path class="cls-2" d="M100.76,103.75l-45,.02,1.7-14.55,45-.02-1.71,14.54ZM103.48,80.9h-45.02l1.71-14.53h45l-1.69,14.53Z"/>
</svg>